# xmcd CD database file
#
# Track frame offsets:
#	150
#	20075
#	35860
#	50450
#	62340
#	78115
#	92582
#	110122
#	125917
#	139000
#	157432
#	172110
#	187897
#	203690
#	220530
#	229765
#	243170
#	256985
#	274017
#	289000
#
# Disc length: 4097 seconds
#
# Revision: 10
# Processed by: cddbd v1.5.2PL0 Copyright (c) Steve Scherf et al.
# Submitted via: CDex 1.51
#
DISCID=230fff14
DTITLE=鄧麗君 - 寶麗金88極品音色系列•鄧麗君
DYEAR=2000
DGENRE=Blues
TTITLE0=恰似你的溫柔
TTITLE1=月亮代表我的心
TTITLE2=海韻
TTITLE3=小城故事
TTITLE4=甜蜜蜜
TTITLE5=東山飄雨西山晴
TTITLE6=愛像一首歌
TTITLE7=再見！我的愛人
TTITLE8=何日君再來
TTITLE9=初次嘗到寂寞
TTITLE10=夜來香
TTITLE11=千言萬語
TTITLE12=風從那裡來
TTITLE13=淚的小雨
TTITLE14=路邊野花不要採
TTITLE15=一個小心願
TTITLE16=假如我是真的
TTITLE17=情人的關懷
TTITLE18=難忘初戀的情人
TTITLE19=但願人長久
EXTD=\n\n YEAR: 2000
EXTT0=
EXTT1=
EXTT2=
EXTT3=
EXTT4=
EXTT5=
EXTT6=
EXTT7=
EXTT8=
EXTT9=
EXTT10=
EXTT11=
EXTT12=
EXTT13=
EXTT14=
EXTT15=
EXTT16=
EXTT17=
EXTT18=
EXTT19=
PLAYORDER=
